<svg id="Component_1_1" data-name="Component 1 – 1" xmlns="http://www.w3.org/2000/svg" width="19.5" height="21" viewBox="0 0 19.5 21">
  <path id="file-arrow-up-down" d="M19,13a6.638,6.638,0,0,1,1,.09V8L14,2H6A1.993,1.993,0,0,0,4,4V20a1.993,1.993,0,0,0,2,2h7.81A5.992,5.992,0,0,1,19,13M13,3.5,18.5,9H13V3.5" transform="translate(-4 -2)" fill="#5caf49"/>
  <path id="file-arrow-up-down-2" data-name="file-arrow-up-down" d="M21,23l-2.5-3H20V16h2v4h1.5m-4-2H18v4H16V18H14.5L17,15Z" transform="translate(-4 -2)" fill="#b26278"/>
</svg>
